<svg xmlns="http://www.w3.org/2000/svg" viewBox="0 0 1024 1024">
  <!-- 背景 -->
  <rect x="24" y="24" width="976" height="976" rx="140" fill="#22A9C8"></rect>
  
  <!-- ドキュメントアイコン（縦を短く） -->
  <path d="M290 210h280l120 120v400a34 34 0 0 1-34 34H318a34 34 0 0 1-34-34V244a34 34 0 0 1 34-34z" fill="#111"></path>
  <path d="M570 210l120 120H570z" fill="#0f0f10"></path>
  <rect x="338" y="320" width="220" height="18" rx="9" fill="#22A9C8"></rect>
  <rect x="338" y="360" width="180" height="18" rx="9" fill="#22A9C8"></rect>
  <rect x="338" y="400" width="260" height="18" rx="9" fill="#22A9C8"></rect>
  
  <!-- 再生ボタン（左上にずらす） -->
  <path d="M580 520l180 100-180 100z" fill="#FF4A95"></path>
  
  <!-- テキスト -->
  <text x="512" y="920" text-anchor="middle" font-family="Arial Rounded MT Bold, sans-serif" font-size="140" fill="#fff" font-weight="700">TechTok</text>
</svg>
